#!OML:ASF X:\für Bonn\!DataBase\2005_08_10_Bjorn_Final\c3d\bjorn.ASF
:FULLY-SPECIFIED
:DEGREES
325
root 22.6964 18.8017 -0.957804 14.3791 -69.9861 -344.495
lowerback 44.541 2.23113 3.91127
upperback 20.4771 1.6463 -0.23466
thorax 2.40788 0.433584 -2.80115
lowerneck -7.48565 -3.55406 9.20829
upperneck -11.1769 -5.37997 2.92005
head -2.48403 -3.28502 -0.600428
rclavicle -2.8625e-014 8.34896e-015
rhumerus 36.5811 20.3589 -48.6884
rradius 25.5989
rwrist -5.95492
rhand -18.8573 14.0951
rfingers 7.12502
rthumb 7.44288 -15.754
lclavicle -2.8625e-014 8.34896e-015
lhumerus 49.234 -30.7477 55.6606
lradius 27.5499
lwrist -13.5578
lhand -23.8162 -4.44139
lfingers 7.12502
lthumb 2.65485 25.5218
rfemur -55.5309 -8.11032 12.7393
rtibia 46.3536
rfoot -15.7015 2.89632
rtoes -9.00026
lfemur -54.1673 8.9665 -24.4565
ltibia 41.7309
lfoot -8.61674 -2.46881
ltoes -12.7003
326
root 22.6587 18.8479 -0.971023 13.6354 -70.0812 -344.465
lowerback 44.1288 2.18664 3.94181
upperback 20.4429 1.60662 -0.274786
thorax 2.47013 0.419026 -2.84551
lowerneck -7.58438 -3.54635 9.35712
upperneck -11.1262 -5.39647 2.87923
head -2.45764 -3.29573 -0.641294
rclavicle 1.11319e-014 -1.74931e-014
rhumerus 34.9248 20.4325 -49.8337
rradius 25.9222
rwrist -6.08309
rhand -18.8658 14.1163
rfingers 7.12502
rthumb 7.43469 -15.733
lclavicle 1.11319e-014 -1.74931e-014
lhumerus 48.4813 -31.2614 55.1744
lradius 28.3131
lwrist -12.9058
lhand -23.9461 -4.56427
lfingers 7.12502
lthumb 2.52938 25.4005
rfemur -54.2452 -8.01953 12.7652
rtibia 45.649
rfoot -15.5876 3.00926
rtoes -8.84343
lfemur -52.8176 9.11845 -24.2338
ltibia 40.9816
lfoot -8.45026 -2.45501
ltoes -12.7382
327
root 22.6182 18.8941 -0.984244 12.9517 -70.1613 -344.489
lowerback 43.7001 2.14203 4.02697
upperback 20.4132 1.5859 -0.307328
thorax 2.54727 0.418486 -2.9157
lowerneck -7.66164 -3.55231 9.54166
upperneck -11.1505 -5.43043 2.82778
head -2.46294 -3.32098 -0.689786
rclavicle 4.92986e-014 1.70955e-014
rhumerus 33.2617 20.4751 -50.9345
rradius 26.2758
rwrist -6.29378
rhand -18.9325 14.0822
rfingers 7.12502
rthumb 7.37033 -15.7694
lclavicle 4.92986e-014 1.70955e-014
lhumerus 47.8517 -31.8911 54.5372
lradius 29.1019
lwrist -12.076
lhand -24.116 -4.65718
lfingers 7.12502
lthumb 2.36534 25.3095
rfemur -52.9542 -7.94737 12.8228
rtibia 44.9424
rfoot -15.4879 3.09942
rtoes -8.75531
lfemur -51.483 9.32169 -24.0183
ltibia 40.2439
lfoot -8.29933 -2.53264
ltoes -12.9689
328
root 22.5763 18.9374 -0.997615 12.2373 -70.2406 -344.48
lowerback 43.2514 2.08538 4.09706
upperback 20.3793 1.54579 -0.351446
thorax 2.62483 0.408665 -2.98444
lowerneck -7.62781 -3.5527 9.63406
upperneck -11.2602 -5.42961 2.84891
head -2.50904 -3.33153 -0.695774
rclavicle 7.63333e-014 3.97569e-015
rhumerus 31.6373 20.588 -51.9424
rradius 26.6576
rwrist -6.53371
rhand -18.9764 14.1095
rfingers 7.12502
rthumb 7.32797 -15.7436
lclavicle 7.63333e-014 3.97569e-015
lhumerus 47.1392 -32.4569 54.0243
lradius 29.8599
lwrist -11.3817
lhand -24.2498 -4.74681
lfingers 7.12502
lthumb 2.23611 25.2212
rfemur -51.6668 -7.88385 12.8708
rtibia 44.2409
rfoot -15.3696 3.19889
rtoes -8.60072
lfemur -50.1576 9.50044 -23.7991
ltibia 39.523
lfoot -8.14136 -2.57271
ltoes -13.0864
329
root 22.5311 18.9795 -1.01018 11.5309 -70.3229 -344.481
lowerback 42.7554 2.04236 4.17718
upperback 20.3683 1.52119 -0.377827
thorax 2.74428 0.406804 -3.04457
lowerneck -7.62135 -3.57476 9.72783
upperneck -11.3444 -5.46444 2.84099
head -2.54425 -3.35799 -0.712209
rclavicle -1.43125e-014 -1.13804e-014
rhumerus 30.0305 20.7066 -52.8768
rradius 27.0612
rwrist -6.8753
rhand -19.002 14.1777
rfingers 7.12502
rthumb 7.30323 -15.6763
lclavicle -1.43125e-014 -1.13804e-014
lhumerus 46.474 -33.0352 53.5413
lradius 30.5866
lwrist -10.6538
lhand -24.4545 -4.8224
lfingers 7.12502
lthumb 2.03845 25.1476
rfemur -50.3733 -7.86809 12.944
rtibia 43.5443
rfoot -15.2502 3.36733
rtoes -8.55332
lfemur -48.8215 9.68546 -23.5707
ltibia 38.8229
lfoot -7.99233 -2.62466
ltoes -13.3609
330
root 22.4841 19.0193 -1.02196 10.9113 -70.4158 -344.572
lowerback 42.2533 1.999 4.26283
upperback 20.3286 1.50235 -0.382697
thorax 2.83535 0.405986 -3.08664
lowerneck -7.45808 -3.62013 9.7341
upperneck -11.5092 -5.50174 2.84167
head -2.63059 -3.38671 -0.706382
rclavicle -3.18055e-015 1.57646e-014
rhumerus 28.3875 20.9077 -53.7418
rradius 27.5245
rwrist -7.27978
rhand -19.0556 14.2065
rfingers 7.12502
rthumb 7.2515 -15.6492
lclavicle -3.18055e-015 1.57646e-014
lhumerus 45.6939 -33.6273 53.1388
lradius 31.3868
lwrist -9.90888
lhand -24.5913 -4.859
lfingers 7.12502
lthumb 1.90624 25.1122
rfemur -49.0874 -7.85566 13.047
rtibia 42.8657
rfoot -15.1368 3.56638
rtoes -8.19327
lfemur -47.4915 9.8491 -23.2826
ltibia 38.1463
lfoot -7.85538 -2.67612
ltoes -13.3241
331
root 22.4354 19.0577 -1.03254 10.3513 -70.5042 -344.712
lowerback 41.7307 1.93783 4.37328
upperback 20.2737 1.4725 -0.394015
thorax 2.91791 0.402954 -3.14486
lowerneck -7.29618 -3.66307 9.72812
upperneck -11.6165 -5.53672 2.83257
head -2.69706 -3.40974 -0.702637
rclavicle 6.04305e-014 3.51849e-014
rhumerus 26.6814 21.0732 -54.6835
rradius 27.9919
rwrist -7.53001
rhand -19.125 14.2792
rfingers 7.12502
rthumb 7.18449 -15.5788
lclavicle 6.04305e-014 3.51849e-014
lhumerus 44.7965 -34.1828 52.8725
lradius 32.1626
lwrist -9.25328
lhand -24.7648 -4.93031
lfingers 7.12502
lthumb 1.73868 25.0424
rfemur -47.8254 -7.91287 13.201
rtibia 42.2033
rfoot -15.0233 3.80016
rtoes -8.17878
lfemur -46.1909 10.0129 -22.9874
ltibia 37.4999
lfoot -7.74217 -2.69604
ltoes -13.6993
332
root 22.3847 19.0922 -1.04369 9.75437 -70.6085 -344.802
lowerback 41.0596 1.90062 4.45448
upperback 20.3354 1.44962 -0.402917
thorax 3.00155 0.404081 -3.20074
lowerneck -7.11449 -3.72046 9.72496
upperneck -11.7258 -5.58849 2.82488
head -2.76867 -3.44134 -0.698158
rclavicle 1.11319e-014 1.70955e-014
rhumerus 24.9139 21.2152 -55.6678
rradius 28.5061
rwrist -7.75932
rhand -19.1268 14.3001
rfingers 7.12502
rthumb 7.18279 -15.558
lclavicle 1.11319e-014 1.70955e-014
lhumerus 43.8671 -34.7621 52.6228
lradius 32.9526
lwrist -8.66764
lhand -24.9295 -4.92109
lfingers 7.12502
lthumb 1.57962 25.0528
rfemur -46.5887 -7.95139 13.3261
rtibia 41.571
rfoot -14.9265 4.02532
rtoes -8.04911
lfemur -44.8997 10.1618 -22.6879
ltibia 36.8773
lfoot -7.64129 -2.73881
ltoes -13.7452
333
root 22.3301 19.1249 -1.05636 9.15998 -70.7011 -344.883
lowerback 40.4999 1.87053 4.49076
upperback 20.2426 1.43793 -0.390041
thorax 3.05224 0.402715 -3.20185
lowerneck -6.90728 -3.78421 9.61476
upperneck -11.7825 -5.63602 2.87534
head -2.82002 -3.46408 -0.657083
rclavicle 2.38542e-014 6.86801e-014
rhumerus 23.0449 21.3075 -56.709
rradius 29.0354
rwrist -7.8872
rhand -19.0767 14.4355
rfingers 7.12502
rthumb 7.23111 -15.4209
lclavicle 2.38542e-014 6.86801e-014
lhumerus 42.8094 -35.3307 52.5343
lradius 33.7758
lwrist -8.13237
lhand -25.0237 -4.84229
lfingers 7.12502
lthumb 1.48867 25.1323
rfemur -45.3655 -7.98582 13.4442
rtibia 40.9635
rfoot -14.8627 4.27009
rtoes -7.87402
lfemur -43.6353 10.3438 -22.4077
ltibia 36.2844
lfoot -7.54217 -2.79419
ltoes -14.1321
334
root 22.2743 19.1552 -1.06856 8.54612 -70.7772 -344.956
lowerback 39.9441 1.82125 4.58102
upperback 20.1535 1.41925 -0.409499
thorax 3.11205 0.406145 -3.26289
lowerneck -6.77926 -3.84435 9.56582
upperneck -11.8211 -5.69297 2.92779
head -2.85413 -3.49339 -0.627494
rclavicle -3.18055e-015 4.19436e-014
rhumerus 21.1092 21.2603 -57.8596
rradius 29.5711
rwrist -7.89201
rhand -18.9696 14.5881
rfingers 7.12502
rthumb 7.33445 -15.2647
lclavicle -3.18055e-015 4.19436e-014
lhumerus 41.8334 -35.9171 52.425
lradius 34.5361
lwrist -7.69458
lhand -25.0441 -4.7101
lfingers 7.12502
lthumb 1.469 25.2646
rfemur -44.1311 -8.05649 13.564
rtibia 40.3888
rfoot -14.8125 4.50877
rtoes -7.71693
lfemur -42.3541 10.4739 -22.099
ltibia 35.7116
lfoot -7.46321 -2.83959
ltoes -14.3714
335
root 22.2161 19.184 -1.0805 7.95685 -70.8607 -345.032
lowerback 39.3469 1.77197 4.64594
upperback 20.0522 1.3933 -0.428455
thorax 3.17171 0.404505 -3.30831
lowerneck -6.62877 -3.8932 9.42447
upperneck -11.8611 -5.72167 3.05262
head -2.88501 -3.50644 -0.558642
rclavicle 1.04958e-013 -2.08724e-014
rhumerus 19.1812 21.1714 -59.0362
rradius 30.0832
rwrist -7.79965
rhand -18.7924 14.7528
rfingers 7.12502
rthumb 7.50549 -15.094
lclavicle 1.04958e-013 -2.08724e-014
lhumerus 40.8748 -36.502 52.3297
lradius 35.2398
lwrist -7.24903
lhand -25.1168 -4.61418
lfingers 7.12502
lthumb 1.39877 25.361
rfemur -42.9296 -8.11427 13.6756
rtibia 39.8393
rfoot -14.7778 4.74013
rtoes -7.53503
lfemur -41.0984 10.5717 -21.7739
ltibia 35.1652
lfoot -7.38146 -2.8654
ltoes -14.4678
336
root 22.1564 19.2101 -1.09302 7.36987 -70.9649 -345.088
lowerback 38.7098 1.73896 4.71846
upperback 19.9541 1.38663 -0.471501
thorax 3.25306 0.416354 -3.38905
lowerneck -6.54653 -3.93333 9.33105
upperneck -11.859 -5.75104 3.17303
head -2.89154 -3.51938 -0.501641
rclavicle -6.36111e-014 4.39314e-014
rhumerus 17.2361 20.9451 -60.2915
rradius 30.5631
rwrist -7.6001
rhand -18.6126 14.8955
rfingers 7.12502
rthumb 7.67909 -14.945
lclavicle -6.36111e-014 4.39314e-014
lhumerus 39.8726 -37.0779 52.3138
lradius 35.9343
lwrist -6.96111
lhand -25.2179 -4.52306
lfingers 7.12502
lthumb 1.30113 25.4527
rfemur -41.7634 -8.16191 13.7821
rtibia 39.3208
rfoot -14.7595 4.97876
rtoes -7.28217
lfemur -39.8639 10.6798 -21.4515
ltibia 34.6334
lfoot -7.33672 -2.88585
ltoes -14.6202
337
root 22.0959 19.2336 -1.10432 6.6454 -71.0595 -344.994
lowerback 38.0432 1.70229 4.71683
upperback 19.8578 1.35216 -0.513266
thorax 3.3441 0.408744 -3.422
lowerneck -6.44397 -3.95245 9.18492
upperneck -11.8677 -5.74776 3.28768
head -2.9022 -3.51421 -0.43757
rclavicle 5.08889e-014 -1.63003e-014
rhumerus 15.3581 20.7501 -61.5019
rradius 31.028
rwrist -7.37773
rhand -18.4442 14.994
rfingers 7.12502
rthumb 7.84157 -14.8406
lclavicle 5.08889e-014 -1.63003e-014
lhumerus 38.8077 -37.6345 52.3097
lradius 36.6392
lwrist -6.64785
lhand -25.4015 -4.42921
lfingers 7.12502
lthumb 1.12379 25.5476
rfemur -40.6184 -8.22577 13.8232
rtibia 38.8321
rfoot -14.7458 5.23842
rtoes -7.02546
lfemur -38.6465 10.713 -21.17
ltibia 34.1228
lfoot -7.3099 -2.85773
ltoes -14.997
